<mxfile host="app.diagrams.net" agent="Mozilla/5.0 (Windows NT 10.0; Win64; x64) AppleWebKit/537.36 (KHTML, like Gecko) Chrome/131.0.0.0 Safari/537.36" version="26.0.3">
  <diagram name="第 1 页" id="wMiKD-tkxedJafJECGsB">
    <mxGraphModel grid="1" page="1" gridSize="10" guides="1" tooltips="1" connect="1" arrows="1" fold="1" pageScale="1" pageWidth="1169" pageHeight="827" math="0" shadow="0">
      <root>
        <mxCell id="0" />
        <mxCell id="1" parent="0" />
        <mxCell id="mq5QeWJbAFbcRvdoAER3-1" value="" style="rounded=0;whiteSpace=wrap;html=1;" vertex="1" parent="1">
          <mxGeometry x="10" y="10" width="870" height="510" as="geometry" />
        </mxCell>
        <mxCell id="mq5QeWJbAFbcRvdoAER3-2" value="class 實體類" style="rounded=0;whiteSpace=wrap;html=1;" vertex="1" parent="1">
          <mxGeometry x="10" y="10" width="90" height="30" as="geometry" />
        </mxCell>
        <mxCell id="mq5QeWJbAFbcRvdoAER3-14" value="" style="edgeStyle=orthogonalEdgeStyle;rounded=0;orthogonalLoop=1;jettySize=auto;html=1;endArrow=none;endFill=0;startArrow=diamondThin;startFill=1;" edge="1" parent="1" source="mq5QeWJbAFbcRvdoAER3-3" target="mq5QeWJbAFbcRvdoAER3-6">
          <mxGeometry relative="1" as="geometry" />
        </mxCell>
        <mxCell id="mq5QeWJbAFbcRvdoAER3-3" value="項目" style="rounded=0;whiteSpace=wrap;html=1;fillColor=#ffe6cc;strokeColor=#d79b00;" vertex="1" parent="1">
          <mxGeometry x="40" y="80" width="120" height="60" as="geometry" />
        </mxCell>
        <mxCell id="mq5QeWJbAFbcRvdoAER3-15" value="" style="edgeStyle=orthogonalEdgeStyle;rounded=0;orthogonalLoop=1;jettySize=auto;html=1;endArrow=block;endFill=0;" edge="1" parent="1" source="mq5QeWJbAFbcRvdoAER3-4" target="mq5QeWJbAFbcRvdoAER3-7">
          <mxGeometry relative="1" as="geometry" />
        </mxCell>
        <mxCell id="mq5QeWJbAFbcRvdoAER3-16" value="" style="edgeStyle=orthogonalEdgeStyle;rounded=0;orthogonalLoop=1;jettySize=auto;html=1;endArrow=open;endFill=0;dashed=1;" edge="1" parent="1" source="mq5QeWJbAFbcRvdoAER3-4" target="mq5QeWJbAFbcRvdoAER3-5">
          <mxGeometry relative="1" as="geometry" />
        </mxCell>
        <mxCell id="mq5QeWJbAFbcRvdoAER3-4" value="啟動模塊" style="rounded=0;whiteSpace=wrap;html=1;fillColor=#ffe6cc;strokeColor=#d79b00;" vertex="1" parent="1">
          <mxGeometry x="40" y="180" width="120" height="60" as="geometry" />
        </mxCell>
        <mxCell id="mq5QeWJbAFbcRvdoAER3-17" value="" style="edgeStyle=orthogonalEdgeStyle;rounded=0;orthogonalLoop=1;jettySize=auto;html=1;endArrow=open;endFill=0;dashed=1;" edge="1" parent="1">
          <mxGeometry relative="1" as="geometry">
            <mxPoint x="160" y="336" as="sourcePoint" />
            <mxPoint x="240" y="336" as="targetPoint" />
          </mxGeometry>
        </mxCell>
        <mxCell id="mq5QeWJbAFbcRvdoAER3-5" value="適配器模塊" style="rounded=0;whiteSpace=wrap;html=1;fillColor=#ffe6cc;strokeColor=#d79b00;" vertex="1" parent="1">
          <mxGeometry x="40" y="290" width="120" height="60" as="geometry" />
        </mxCell>
        <mxCell id="mq5QeWJbAFbcRvdoAER3-6" value="文件夾" style="rounded=0;whiteSpace=wrap;html=1;fillColor=#ffe6cc;strokeColor=#d79b00;" vertex="1" parent="1">
          <mxGeometry x="240" y="80" width="120" height="60" as="geometry" />
        </mxCell>
        <mxCell id="mq5QeWJbAFbcRvdoAER3-32" value="" style="edgeStyle=orthogonalEdgeStyle;rounded=0;orthogonalLoop=1;jettySize=auto;html=1;endArrow=block;endFill=0;" edge="1" parent="1" source="mq5QeWJbAFbcRvdoAER3-7" target="mq5QeWJbAFbcRvdoAER3-6">
          <mxGeometry relative="1" as="geometry" />
        </mxCell>
        <mxCell id="mq5QeWJbAFbcRvdoAER3-7" value="模塊" style="rounded=0;whiteSpace=wrap;html=1;fillColor=#ffe6cc;strokeColor=#d79b00;" vertex="1" parent="1">
          <mxGeometry x="240" y="180" width="120" height="60" as="geometry" />
        </mxCell>
        <mxCell id="mq5QeWJbAFbcRvdoAER3-18" value="" style="edgeStyle=orthogonalEdgeStyle;rounded=0;orthogonalLoop=1;jettySize=auto;html=1;endArrow=none;endFill=0;" edge="1" parent="1">
          <mxGeometry relative="1" as="geometry">
            <mxPoint x="240" y="308" as="sourcePoint" />
            <mxPoint x="160" y="308" as="targetPoint" />
          </mxGeometry>
        </mxCell>
        <mxCell id="mq5QeWJbAFbcRvdoAER3-33" value="" style="edgeStyle=orthogonalEdgeStyle;rounded=0;orthogonalLoop=1;jettySize=auto;html=1;endArrow=block;endFill=0;" edge="1" parent="1" source="mq5QeWJbAFbcRvdoAER3-8" target="mq5QeWJbAFbcRvdoAER3-7">
          <mxGeometry relative="1" as="geometry" />
        </mxCell>
        <mxCell id="mq5QeWJbAFbcRvdoAER3-8" value="領域模塊" style="rounded=0;whiteSpace=wrap;html=1;fillColor=#ffe6cc;strokeColor=#d79b00;" vertex="1" parent="1">
          <mxGeometry x="240" y="290" width="120" height="60" as="geometry" />
        </mxCell>
        <mxCell id="mq5QeWJbAFbcRvdoAER3-9" value="支撐域模塊" style="rounded=0;whiteSpace=wrap;html=1;fillColor=#ffe6cc;strokeColor=#d79b00;" vertex="1" parent="1">
          <mxGeometry x="110" y="420" width="120" height="60" as="geometry" />
        </mxCell>
        <mxCell id="mq5QeWJbAFbcRvdoAER3-10" value="核心域模塊" style="rounded=0;whiteSpace=wrap;html=1;fillColor=#ffe6cc;strokeColor=#d79b00;" vertex="1" parent="1">
          <mxGeometry x="240" y="420" width="120" height="60" as="geometry" />
        </mxCell>
        <mxCell id="mq5QeWJbAFbcRvdoAER3-11" value="通用域模塊" style="rounded=0;whiteSpace=wrap;html=1;fillColor=#ffe6cc;strokeColor=#d79b00;" vertex="1" parent="1">
          <mxGeometry x="370" y="420" width="120" height="60" as="geometry" />
        </mxCell>
        <mxCell id="mq5QeWJbAFbcRvdoAER3-12" value="Grade工程" style="rounded=0;whiteSpace=wrap;html=1;fillColor=#ffe6cc;strokeColor=#d79b00;" vertex="1" parent="1">
          <mxGeometry x="465" y="210" width="120" height="60" as="geometry" />
        </mxCell>
        <mxCell id="mq5QeWJbAFbcRvdoAER3-13" value="Maven工程" style="rounded=0;whiteSpace=wrap;html=1;fillColor=#ffe6cc;strokeColor=#d79b00;" vertex="1" parent="1">
          <mxGeometry x="465" y="120" width="120" height="60" as="geometry" />
        </mxCell>
        <mxCell id="mq5QeWJbAFbcRvdoAER3-21" value="" style="endArrow=block;html=1;rounded=0;exitX=1;exitY=0;exitDx=0;exitDy=0;endFill=0;" edge="1" parent="1" source="mq5QeWJbAFbcRvdoAER3-5">
          <mxGeometry width="50" height="50" relative="1" as="geometry">
            <mxPoint x="190" y="290" as="sourcePoint" />
            <mxPoint x="240" y="240" as="targetPoint" />
          </mxGeometry>
        </mxCell>
        <mxCell id="mq5QeWJbAFbcRvdoAER3-26" value="" style="endArrow=block;html=1;rounded=0;exitX=0.983;exitY=0.367;exitDx=0;exitDy=0;exitPerimeter=0;dashed=1;endFill=0;" edge="1" parent="1" source="mq5QeWJbAFbcRvdoAER3-7">
          <mxGeometry width="50" height="50" relative="1" as="geometry">
            <mxPoint x="410" y="200" as="sourcePoint" />
            <mxPoint x="460" y="150" as="targetPoint" />
          </mxGeometry>
        </mxCell>
        <mxCell id="mq5QeWJbAFbcRvdoAER3-27" value="" style="endArrow=block;html=1;rounded=0;exitX=0.983;exitY=0.367;exitDx=0;exitDy=0;exitPerimeter=0;endFill=0;dashed=1;" edge="1" parent="1">
          <mxGeometry width="50" height="50" relative="1" as="geometry">
            <mxPoint x="360" y="210" as="sourcePoint" />
            <mxPoint x="462" y="262" as="targetPoint" />
          </mxGeometry>
        </mxCell>
        <mxCell id="mq5QeWJbAFbcRvdoAER3-28" value="" style="endArrow=block;html=1;rounded=0;exitX=0.5;exitY=0;exitDx=0;exitDy=0;endFill=0;" edge="1" parent="1" source="mq5QeWJbAFbcRvdoAER3-9">
          <mxGeometry width="50" height="50" relative="1" as="geometry">
            <mxPoint x="190" y="400" as="sourcePoint" />
            <mxPoint x="240" y="350" as="targetPoint" />
          </mxGeometry>
        </mxCell>
        <mxCell id="mq5QeWJbAFbcRvdoAER3-29" value="" style="endArrow=block;html=1;rounded=0;exitX=0.5;exitY=0;exitDx=0;exitDy=0;endFill=0;" edge="1" parent="1" source="mq5QeWJbAFbcRvdoAER3-10">
          <mxGeometry width="50" height="50" relative="1" as="geometry">
            <mxPoint x="250" y="400" as="sourcePoint" />
            <mxPoint x="300" y="350" as="targetPoint" />
          </mxGeometry>
        </mxCell>
        <mxCell id="mq5QeWJbAFbcRvdoAER3-30" value="" style="endArrow=block;html=1;rounded=0;exitX=0.5;exitY=0;exitDx=0;exitDy=0;endFill=0;" edge="1" parent="1" source="mq5QeWJbAFbcRvdoAER3-11">
          <mxGeometry width="50" height="50" relative="1" as="geometry">
            <mxPoint x="310" y="400" as="sourcePoint" />
            <mxPoint x="360" y="350" as="targetPoint" />
          </mxGeometry>
        </mxCell>
        <mxCell id="mq5QeWJbAFbcRvdoAER3-31" value="" style="endArrow=none;html=1;rounded=0;entryX=0.402;entryY=0.216;entryDx=0;entryDy=0;entryPerimeter=0;startArrow=diamond;startFill=0;endFill=0;" edge="1" parent="1" target="mq5QeWJbAFbcRvdoAER3-1">
          <mxGeometry width="50" height="50" relative="1" as="geometry">
            <mxPoint x="290" y="80" as="sourcePoint" />
            <mxPoint x="340" y="30" as="targetPoint" />
            <Array as="points">
              <mxPoint x="290" y="30" />
              <mxPoint x="380" y="30" />
              <mxPoint x="380" y="120" />
            </Array>
          </mxGeometry>
        </mxCell>
        <mxCell id="mq5QeWJbAFbcRvdoAER3-34" value="" style="endArrow=none;html=1;rounded=0;entryX=0.67;entryY=0.004;entryDx=0;entryDy=0;entryPerimeter=0;exitX=0.678;exitY=1;exitDx=0;exitDy=0;exitPerimeter=0;" edge="1" parent="1" source="mq5QeWJbAFbcRvdoAER3-1" target="mq5QeWJbAFbcRvdoAER3-1">
          <mxGeometry width="50" height="50" relative="1" as="geometry">
            <mxPoint x="640" y="180" as="sourcePoint" />
            <mxPoint x="690" y="130" as="targetPoint" />
          </mxGeometry>
        </mxCell>
        <mxCell id="mq5QeWJbAFbcRvdoAER3-35" value="&lt;font style=&quot;font-size: 19px;&quot;&gt;以領域模塊為核心,基於六邊形分層架構思想的項目模塊分析模型&lt;/font&gt;&lt;div&gt;&lt;span style=&quot;font-size: 19px;&quot;&gt;&lt;br&gt;&lt;/span&gt;&lt;div&gt;&lt;font style=&quot;font-size: 19px;&quot;&gt;其中領域模塊可分為核心域模塊,支撐域模塊以及通用域模塊&lt;/font&gt;&lt;/div&gt;&lt;/div&gt;&lt;div&gt;&lt;font style=&quot;font-size: 19px;&quot;&gt;&lt;br&gt;&lt;/font&gt;&lt;/div&gt;&lt;div&gt;&lt;font style=&quot;font-size: 19px;&quot;&gt;&lt;br&gt;&lt;/font&gt;&lt;/div&gt;&lt;div&gt;&lt;font style=&quot;font-size: 15px;&quot; color=&quot;#ba0000&quot;&gt;註:核心域,支撐域以及通用域都是相對的,取決於該項目(產品)所處的位置&lt;/font&gt;&lt;/div&gt;" style="text;html=1;align=left;verticalAlign=middle;whiteSpace=wrap;rounded=0;" vertex="1" parent="1">
          <mxGeometry x="620" y="90" width="210" height="360" as="geometry" />
        </mxCell>
        <mxCell id="mq5QeWJbAFbcRvdoAER3-36" value="模&lt;div&gt;塊&lt;/div&gt;&lt;div&gt;分&lt;/div&gt;&lt;div&gt;析&lt;/div&gt;&lt;div&gt;模&lt;div&gt;&lt;div&gt;型&lt;/div&gt;&lt;/div&gt;&lt;/div&gt;" style="text;strokeColor=none;fillColor=none;html=1;fontSize=24;fontStyle=1;verticalAlign=middle;align=center;whiteSpace=wrap;" vertex="1" parent="1">
          <mxGeometry x="800" y="245" width="100" height="40" as="geometry" />
        </mxCell>
      </root>
    </mxGraphModel>
  </diagram>
</mxfile>
